<svg width="16" height="20" viewBox="0 0 16 20" fill="none" xmlns="http://www.w3.org/2000/svg">
<path d="M16 20H0V0H16V20Z" stroke="#E5E7EB"/>
<g clip-path="url(#clip0_511_6226)">
<path d="M14.7375 2.67734C14.0531 1.99297 12.9469 1.99297 12.2625 2.67734L11.3219 3.61484L14.3813 6.67422L15.3219 5.73359C16.0062 5.04922 16.0062 3.94297 15.3219 3.25859L14.7375 2.67734ZM5.3875 9.55234C5.19687 9.74297 5.05 9.97734 4.96562 10.2367L4.04063 13.0117C3.95 13.2805 4.02188 13.5773 4.22188 13.7805C4.42188 13.9836 4.71875 14.0523 4.99062 13.9617L7.76562 13.0367C8.02187 12.9523 8.25625 12.8055 8.45 12.6148L13.6781 7.38359L10.6156 4.32109L5.3875 9.55234ZM3 3.99922C1.34375 3.99922 0 5.34297 0 6.99922V14.9992C0 16.6555 1.34375 17.9992 3 17.9992H11C12.6562 17.9992 14 16.6555 14 14.9992V11.9992C14 11.4461 13.5531 10.9992 13 10.9992C12.4469 10.9992 12 11.4461 12 11.9992V14.9992C12 15.5523 11.5531 15.9992 11 15.9992H3C2.44687 15.9992 2 15.5523 2 14.9992V6.99922C2 6.44609 2.44687 5.99922 3 5.99922H6C6.55313 5.99922 7 5.55234 7 4.99922C7 4.44609 6.55313 3.99922 6 3.99922H3Z" fill="white"/>
</g>
<defs>
<clipPath id="clip0_511_6226">
<path d="M0 2H16V18H0V2Z" fill="white"/>
</clipPath>
</defs>
</svg>
