<svg width="80" height="80" viewBox="0 0 80 80" fill="none" xmlns="http://www.w3.org/2000/svg">
<path d="M0 40C0 17.9086 17.9086 0 40 0C62.0914 0 80 17.9086 80 40C80 62.0914 62.0914 80 40 80C17.9086 80 0 62.0914 0 40Z" fill="#DCFCE7"/>
<g clip-path="url(#clip0_1043_3242)">
<path d="M40.9844 31.9688C41.5187 31.6406 41.875 31.0453 41.875 30.375C41.875 29.3391 41.0359 28.5 40 28.5C38.9641 28.5 38.125 29.3391 38.125 30.375C38.125 31.05 38.4813 31.6406 39.0156 31.9688L36.3297 37.3406C35.9031 38.1938 34.7969 38.4375 34.0516 37.8422L29.875 34.5C30.1094 34.1859 30.25 33.7969 30.25 33.375C30.25 32.3391 29.4109 31.5 28.375 31.5C27.3391 31.5 26.5 32.3391 26.5 33.375C26.5 34.4109 27.3391 35.25 28.375 35.25C28.3844 35.25 28.3984 35.25 28.4078 35.25L30.55 47.0344C30.8078 48.4594 32.05 49.5 33.5031 49.5H46.4969C47.9453 49.5 49.1875 48.4641 49.45 47.0344L51.5922 35.25C51.6016 35.25 51.6156 35.25 51.625 35.25C52.6609 35.25 53.5 34.4109 53.5 33.375C53.5 32.3391 52.6609 31.5 51.625 31.5C50.5891 31.5 49.75 32.3391 49.75 33.375C49.75 33.7969 49.8906 34.1859 50.125 34.5L45.9484 37.8422C45.2031 38.4375 44.0969 38.1938 43.6703 37.3406L40.9844 31.9688Z" fill="#16A34A"/>
</g>
<defs>
<clipPath id="clip0_1043_3242">
<rect width="27" height="24" fill="white" transform="translate(26.5 27)"/>
</clipPath>
</defs>
</svg>
