<svg width="80" height="81" viewBox="0 0 80 81" fill="none" xmlns="http://www.w3.org/2000/svg">
<path d="M0 40C0 17.9086 17.9086 0 40 0C62.0914 0 80 17.9086 80 40C80 62.0914 62.0914 80 40 80C17.9086 80 0 62.0914 0 40Z" fill="#FCDCDC"/>
<path d="M25 40C25 31.7157 31.7157 25 40 25C48.2843 25 55 31.7157 55 40C55 48.2843 48.2843 55 40 55C31.7157 55 25 48.2843 25 40Z" fill="#DC2626"/>
<path d="M42.4292 31.9L41.9092 41.38H38.1092L37.5892 31.9H42.4292ZM40.0092 47.16C39.2359 47.16 38.6159 46.9533 38.1492 46.54C37.6826 46.1267 37.4492 45.6067 37.4492 44.98C37.4492 44.34 37.6826 43.8133 38.1492 43.4C38.6159 42.9733 39.2359 42.76 40.0092 42.76C40.7692 42.76 41.3826 42.9733 41.8492 43.4C42.3159 43.8133 42.5492 44.34 42.5492 44.98C42.5492 45.6067 42.3159 46.1267 41.8492 46.54C41.3826 46.9533 40.7692 47.16 40.0092 47.16Z" fill="white"/>
</svg>
