<svg width="22" height="28" viewBox="0 0 22 28" fill="none" xmlns="http://www.w3.org/2000/svg">
<path d="M8.74925 7.5C8.05785 7.5 7.49925 8.05859 7.49925 8.75V9.5C4.64769 10.0781 2.49925 12.6016 2.49925 15.625V16.3594C2.49925 18.1953 1.82347 19.9688 0.604721 21.3438L0.315659 21.668C-0.0124665 22.0352 -0.0905915 22.5625 0.108627 23.0117C0.307846 23.4609 0.757065 23.75 1.24925 23.75H16.2493C16.7414 23.75 17.1868 23.4609 17.3899 23.0117C17.593 22.5625 17.511 22.0352 17.1828 21.668L16.8938 21.3438C15.675 19.9688 14.9993 18.1992 14.9993 16.3594V15.625C14.9993 12.6016 12.8508 10.0781 9.99925 9.5V8.75C9.99925 8.05859 9.44066 7.5 8.74925 7.5ZM10.5188 26.7695C10.9875 26.3008 11.2493 25.6641 11.2493 25H8.74925H6.24925C6.24925 25.6641 6.51097 26.3008 6.97972 26.7695C7.44847 27.2383 8.08519 27.5 8.74925 27.5C9.41331 27.5 10.05 27.2383 10.5188 26.7695Z" fill="#9CA3AF"/>
<path d="M15.499 0C18.8127 0 21.499 2.68629 21.499 6C21.499 9.31371 18.8127 12 15.499 12C12.1853 12 9.49902 9.31371 9.49902 6C9.49902 2.68629 12.1853 0 15.499 0Z" fill="#EF4444"/>
<path d="M15.499 0C18.8127 0 21.499 2.68629 21.499 6C21.499 9.31371 18.8127 12 15.499 12C12.1853 12 9.49902 9.31371 9.49902 6C9.49902 2.68629 12.1853 0 15.499 0Z" stroke="#E5E7EB"/>
</svg>
