<svg width="1440" height="810" viewBox="0 0 1440 810" fill="none" xmlns="http://www.w3.org/2000/svg">
<g clip-path="url(#clip0_942_2320)">
<path fill-rule="evenodd" clip-rule="evenodd" d="M1398 247.5H1355.52V-19H1350.8V247.5H1331.92V-19H1327.2V247.5H1308.32V-19H1303.6V247.5H1284.72V-19H1280V247.5H1044V252.83H1280V274.15H1044V279.48H1280V300.8H1044V306.13H1280V327.45H1044V332.78H1280V380.75C1280 454.342 1332.83 514 1398 514C1463.17 514 1516 454.342 1516 380.75C1516 307.158 1463.17 247.5 1398 247.5ZM1303.6 274.15H1284.72V252.83H1303.6V274.15ZM1308.32 274.15H1327.2V252.83H1308.32V274.15ZM1331.92 274.15H1350.8V252.83H1331.92V274.15ZM1355.52 274.15V252.83H1398C1460.56 252.83 1511.28 310.102 1511.28 380.75C1511.28 451.398 1460.56 508.67 1398 508.67C1335.44 508.67 1284.72 451.398 1284.72 380.75V332.78H1303.6V380.75C1303.6 439.624 1345.86 487.35 1398 487.35C1450.14 487.35 1492.4 439.624 1492.4 380.75C1492.4 321.876 1450.14 274.15 1398 274.15H1355.52ZM1303.6 327.45H1284.72V306.13H1303.6V327.45ZM1308.32 332.78V380.75C1308.32 436.68 1348.47 482.02 1398 482.02C1447.53 482.02 1487.68 436.68 1487.68 380.75C1487.68 324.82 1447.53 279.48 1398 279.48H1355.52V300.8H1398C1437.1 300.8 1468.8 336.595 1468.8 380.75C1468.8 424.905 1437.1 460.7 1398 460.7C1358.9 460.7 1327.2 424.905 1327.2 380.75V332.78H1308.32ZM1331.92 300.8H1350.8V279.48H1331.92V300.8ZM1327.2 279.48V300.8H1308.32V279.48H1327.2ZM1327.2 306.13V327.45H1308.32V306.13H1327.2ZM1331.92 380.75V332.78H1350.8V380.75C1350.8 410.187 1371.93 434.05 1398 434.05C1424.07 434.05 1445.2 410.187 1445.2 380.75C1445.2 351.313 1424.07 327.45 1398 327.45H1355.52V306.13H1398C1434.49 306.13 1464.08 339.539 1464.08 380.75C1464.08 421.961 1434.49 455.37 1398 455.37C1361.51 455.37 1331.92 421.961 1331.92 380.75ZM1355.52 380.75C1355.52 407.243 1374.54 428.72 1398 428.72C1421.46 428.72 1440.48 407.243 1440.48 380.75C1440.48 354.257 1421.46 332.78 1398 332.78H1355.52V380.75ZM1350.8 327.45V306.13H1331.92V327.45H1350.8ZM1303.6 300.8H1284.72V279.48H1303.6V300.8Z" fill="url(#paint0_linear_942_2320)" fill-opacity="0.5"/>
</g>
<g clip-path="url(#clip1_942_2320)">
<path fill-rule="evenodd" clip-rule="evenodd" d="M-56 613.5H-13.52V880H-8.79999V613.5H10.08V880H14.8V613.5H33.68V880H38.4V613.5H57.28V880H62V613.5H298V608.17H62V586.85H298V581.52H62V560.2H298V554.87H62V533.55H298V528.22H62V480.25C62 406.658 9.16962 347 -56 347C-121.17 347 -174 406.658 -174 480.25C-174 553.842 -121.17 613.5 -56 613.5ZM38.4 586.85H57.28V608.17H38.4V586.85ZM33.68 586.85H14.8V608.17H33.68V586.85ZM10.08 586.85H-8.79999V608.17H10.08V586.85ZM-13.52 586.85V608.17H-56C-118.563 608.17 -169.28 550.898 -169.28 480.25C-169.28 409.602 -118.563 352.33 -56 352.33C6.56284 352.33 57.28 409.602 57.28 480.25V528.22H38.4V480.25C38.4 421.376 -3.86432 373.65 -56 373.65C-108.136 373.65 -150.4 421.376 -150.4 480.25C-150.4 539.124 -108.136 586.85 -56 586.85H-13.52ZM38.4 533.55H57.28V554.87H38.4V533.55ZM33.68 528.22V480.25C33.68 424.32 -6.4711 378.98 -56 378.98C-105.529 378.98 -145.68 424.32 -145.68 480.25C-145.68 536.18 -105.529 581.52 -56 581.52H-13.52V560.2H-56C-95.1017 560.2 -126.8 524.405 -126.8 480.25C-126.8 436.095 -95.1017 400.3 -56 400.3C-16.8982 400.3 14.8 436.095 14.8 480.25V528.22H33.68ZM10.08 560.2H-8.79999V581.52H10.08V560.2ZM14.8 581.52V560.2H33.68V581.52H14.8ZM14.8 554.87V533.55H33.68V554.87H14.8ZM10.08 480.25V528.22H-8.79999V480.25C-8.79999 450.813 -29.9322 426.95 -56 426.95C-82.0678 426.95 -103.2 450.813 -103.2 480.25C-103.2 509.687 -82.0678 533.55 -56 533.55H-13.52V554.87H-56C-92.495 554.87 -122.08 521.461 -122.08 480.25C-122.08 439.039 -92.495 405.63 -56 405.63C-19.505 405.63 10.08 439.039 10.08 480.25ZM-13.52 480.25C-13.52 453.757 -32.5389 432.28 -56 432.28C-79.461 432.28 -98.48 453.757 -98.48 480.25C-98.48 506.743 -79.461 528.22 -56 528.22H-13.52V480.25ZM-8.79999 533.55V554.87H10.08V533.55H-8.79999ZM38.4 560.2H57.28V581.52H38.4V560.2Z" fill="url(#paint1_linear_942_2320)" fill-opacity="0.5"/>
</g>
<defs>
<linearGradient id="paint0_linear_942_2320" x1="1473.52" y1="484.685" x2="988.613" y2="29.3205" gradientUnits="userSpaceOnUse">
<stop stop-color="white"/>
<stop offset="1" stop-color="white" stop-opacity="0"/>
</linearGradient>
<linearGradient id="paint1_linear_942_2320" x1="-131.52" y1="376.315" x2="353.387" y2="831.68" gradientUnits="userSpaceOnUse">
<stop stop-color="white"/>
<stop offset="1" stop-color="white" stop-opacity="0"/>
</linearGradient>
<clipPath id="clip0_942_2320">
<rect width="845" height="845" fill="white" transform="translate(883 -15)"/>
</clipPath>
<clipPath id="clip1_942_2320">
<rect width="845" height="845" fill="white" transform="matrix(-1 0 0 -1 459 876)"/>
</clipPath>
</defs>
</svg>
