<svg width="80" height="80" viewBox="0 0 80 80" fill="none" xmlns="http://www.w3.org/2000/svg">
<path d="M0 40C0 17.9086 17.9086 0 40 0C62.0914 0 80 17.9086 80 40C80 62.0914 62.0914 80 40 80C17.9086 80 0 62.0914 0 40Z" fill="#FFF6AF"/>
<path d="M56.333 62H27V18H56.333V62Z" stroke="#E5E7EB"/>
<g clip-path="url(#clip0_1158_3507)">
<path d="M31.2969 29.6299L29.349 27.682C28.4839 26.8169 27 27.4299 27 28.6502V34.958C27 35.72 27.613 36.333 28.375 36.333H34.6828C35.9089 36.333 36.5219 34.8492 35.6568 33.984L33.8922 32.2195C35.8802 30.2314 38.6302 28.9997 41.6667 28.9997C47.7396 28.9997 52.6667 33.9268 52.6667 39.9997C52.6667 46.0726 47.7396 50.9997 41.6667 50.9997C39.3292 50.9997 37.1635 50.2721 35.3818 49.0288C34.551 48.4502 33.4109 48.6507 32.8266 49.4814C32.2422 50.3122 32.4484 51.4523 33.2792 52.0367C35.6625 53.6924 38.5557 54.6663 41.6667 54.6663C49.7677 54.6663 56.3333 48.1007 56.3333 39.9997C56.3333 31.8986 49.7677 25.333 41.6667 25.333C37.6161 25.333 33.9495 26.9773 31.2969 29.6299ZM41.6667 32.6663C40.9047 32.6663 40.2917 33.2794 40.2917 34.0413V39.9997C40.2917 40.3663 40.4349 40.7158 40.6927 40.9736L44.8177 45.0986C45.3563 45.6372 46.2271 45.6372 46.7599 45.0986C47.2927 44.5601 47.2984 43.6893 46.7599 43.1564L43.0359 39.4325V34.0413C43.0359 33.2794 42.4229 32.6663 41.6609 32.6663H41.6667Z" fill="#DDC826"/>
</g>
<defs>
<clipPath id="clip0_1158_3507">
<path d="M27 25.3333H56.3333V54.6666H27V25.3333Z" fill="white"/>
</clipPath>
</defs>
</svg>
