<svg width="16" height="16" viewBox="0 0 16 16" fill="none" xmlns="http://www.w3.org/2000/svg">
<path d="M1.33301 8.55351V10.0002C1.33301 13.3335 2.66634 14.6668 5.99967 14.6668H9.99967C13.333 14.6668 14.6663 13.3335 14.6663 10.0002V6.00016C14.6663 2.66683 13.333 1.3335 9.99967 1.3335H5.99967C2.66634 1.3335 1.33301 2.66683 1.33301 6.00016" stroke="white" stroke-linecap="round" stroke-linejoin="round"/>
<path d="M6.73954 7.43311H4.97288C4.55288 7.43311 4.21289 7.77307 4.21289 8.19307V11.6064H6.73954V7.43311V7.43311Z" stroke="white" stroke-miterlimit="10" stroke-linecap="round" stroke-linejoin="round"/>
<path d="M8.50576 4.3999H7.49241C7.07241 4.3999 6.73242 4.73991 6.73242 5.15991V11.5999H9.25909V5.15991C9.25909 4.73991 8.92576 4.3999 8.50576 4.3999Z" stroke="white" stroke-miterlimit="10" stroke-linecap="round" stroke-linejoin="round"/>
<path d="M11.0333 8.56641H9.2666V11.5998H11.7933V9.32642C11.7866 8.90642 11.4466 8.56641 11.0333 8.56641Z" stroke="white" stroke-miterlimit="10" stroke-linecap="round" stroke-linejoin="round"/>
</svg>
