<svg width="16" height="16" viewBox="0 0 16 16" fill="none" xmlns="http://www.w3.org/2000/svg">
<path d="M8 10.5C6.62 10.5 5.5 9.38 5.5 8C5.5 6.62 6.62 5.5 8 5.5C9.38 5.5 10.5 6.62 10.5 8C10.5 9.38 9.38 10.5 8 10.5ZM8 6.5C7.17333 6.5 6.5 7.17333 6.5 8C6.5 8.82667 7.17333 9.5 8 9.5C8.82667 9.5 9.5 8.82667 9.5 8C9.5 7.17333 8.82667 6.5 8 6.5Z" fill="white"/>
<path d="M10.1397 14.7932C9.99967 14.7932 9.85967 14.7732 9.71968 14.7399C9.30634 14.6265 8.95967 14.3665 8.73967 13.9999L8.65967 13.8665C8.26634 13.1865 7.72634 13.1865 7.33301 13.8665L7.25968 13.9932C7.03967 14.3665 6.69301 14.6332 6.27967 14.7399C5.85967 14.8532 5.42634 14.7932 5.05967 14.5732L3.91301 13.9132C3.50634 13.6799 3.21301 13.2999 3.08634 12.8399C2.96634 12.3799 3.02634 11.9065 3.25967 11.4999C3.45301 11.1599 3.50634 10.8532 3.39301 10.6599C3.27967 10.4665 2.99301 10.3532 2.59967 10.3532C1.62634 10.3532 0.833008 9.55987 0.833008 8.58653V7.4132C0.833008 6.43987 1.62634 5.64653 2.59967 5.64653C2.99301 5.64653 3.27967 5.5332 3.39301 5.33987C3.50634 5.14653 3.45967 4.83987 3.25967 4.49987C3.02634 4.0932 2.96634 3.6132 3.08634 3.15987C3.20634 2.69987 3.49967 2.31987 3.91301 2.08653L5.06634 1.42653C5.81967 0.979865 6.81301 1.23987 7.26634 2.00653L7.34634 2.13987C7.73968 2.81987 8.27968 2.81987 8.67301 2.13987L8.74634 2.0132C9.19967 1.23987 10.193 0.979865 10.953 1.4332L12.0997 2.0932C12.5063 2.32653 12.7997 2.70653 12.9263 3.16653C13.0463 3.62653 12.9863 4.09987 12.753 4.50653C12.5597 4.84653 12.5063 5.1532 12.6197 5.34653C12.733 5.53987 13.0197 5.6532 13.413 5.6532C14.3863 5.6532 15.1797 6.44653 15.1797 7.41987V8.5932C15.1797 9.56653 14.3863 10.3599 13.413 10.3599C13.0197 10.3599 12.733 10.4732 12.6197 10.6665C12.5063 10.8599 12.553 11.1665 12.753 11.5065C12.9863 11.9132 13.053 12.3932 12.9263 12.8465C12.8063 13.3065 12.513 13.6865 12.0997 13.9199L10.9463 14.5799C10.693 14.7199 10.4197 14.7932 10.1397 14.7932ZM7.99967 12.3265C8.59301 12.3265 9.14634 12.6999 9.52634 13.3599L9.59967 13.4865C9.67967 13.6265 9.81301 13.7265 9.97301 13.7665C10.133 13.8065 10.293 13.7865 10.4263 13.7065L11.5797 13.0399C11.753 12.9399 11.8863 12.7732 11.9397 12.5732C11.993 12.3732 11.9663 12.1665 11.8663 11.9932C11.4863 11.3399 11.4397 10.6665 11.733 10.1532C12.0263 9.63986 12.633 9.34653 13.393 9.34653C13.8197 9.34653 14.1597 9.00653 14.1597 8.57987V7.40653C14.1597 6.98653 13.8197 6.63987 13.393 6.63987C12.633 6.63987 12.0263 6.34653 11.733 5.8332C11.4397 5.31987 11.4863 4.64653 11.8663 3.9932C11.9663 3.81987 11.993 3.6132 11.9397 3.4132C11.8863 3.2132 11.7597 3.0532 11.5863 2.94653L10.433 2.28653C10.1463 2.1132 9.76634 2.2132 9.59301 2.50653L9.51967 2.6332C9.13967 3.2932 8.58634 3.66653 7.99301 3.66653C7.39967 3.66653 6.84634 3.2932 6.46634 2.6332L6.39301 2.49987C6.22634 2.21987 5.85301 2.11987 5.56634 2.28653L4.41301 2.9532C4.23967 3.0532 4.10634 3.21987 4.05301 3.41987C3.99967 3.61987 4.02634 3.82653 4.12634 3.99987C4.50634 4.6532 4.55301 5.32653 4.25967 5.83987C3.96634 6.3532 3.35967 6.64653 2.59967 6.64653C2.17301 6.64653 1.83301 6.98653 1.83301 7.4132V8.58653C1.83301 9.00653 2.17301 9.3532 2.59967 9.3532C3.35967 9.3532 3.96634 9.64653 4.25967 10.1599C4.55301 10.6732 4.50634 11.3465 4.12634 11.9999C4.02634 12.1732 3.99967 12.3799 4.05301 12.5799C4.10634 12.7799 4.23301 12.9399 4.40634 13.0465L5.55967 13.7065C5.69967 13.7932 5.86634 13.8132 6.01967 13.7732C6.17967 13.7332 6.31301 13.6265 6.39967 13.4865L6.47301 13.3599C6.85301 12.7065 7.40634 12.3265 7.99967 12.3265Z" fill="white"/>
</svg>
