<svg width="16" height="16" viewBox="0 0 16 16" fill="none" xmlns="http://www.w3.org/2000/svg">
<path d="M8.00622 11.3334C7.43956 11.3334 6.86622 11.1867 6.41956 10.9L2.40622 8.28002C1.65956 7.79336 1.21289 6.97336 1.21289 6.08002C1.21289 5.18669 1.65956 4.36669 2.40622 3.88002L6.42622 1.26669C7.31956 0.68669 8.71289 0.68669 9.59956 1.27336L13.5929 3.89336C14.3329 4.38002 14.7796 5.20002 14.7796 6.08669C14.7796 6.97336 14.3329 7.79336 13.5929 8.28002L9.59956 10.9C9.15289 11.1934 8.57956 11.3334 8.00622 11.3334ZM8.00622 1.83336C7.62622 1.83336 7.24622 1.92002 6.97289 2.10669L2.95956 4.72002C2.49289 5.02669 2.21956 5.52002 2.21956 6.08002C2.21956 6.64002 2.48622 7.13336 2.95956 7.44002L6.97289 10.06C7.52622 10.42 8.49956 10.42 9.05289 10.06L13.0462 7.44002C13.5129 7.13336 13.7796 6.64002 13.7796 6.08002C13.7796 5.52002 13.5129 5.02669 13.0462 4.72002L9.05289 2.10002C8.77289 1.92669 8.39289 1.83336 8.00622 1.83336Z" fill="white"/>
<path d="M8.00045 15.1669C7.70711 15.1669 7.40711 15.1269 7.16711 15.0469L5.04045 14.3402C4.03378 14.0069 3.24045 12.9069 3.24711 11.8469L3.25378 8.72021C3.25378 8.44688 3.48045 8.22021 3.75378 8.22021C4.02711 8.22021 4.25378 8.44688 4.25378 8.72021L4.24711 11.8469C4.24711 12.4735 4.76711 13.1935 5.36045 13.3935L7.48711 14.1002C7.75378 14.1869 8.24711 14.1869 8.51378 14.1002L10.6404 13.3935C11.2338 13.1935 11.7538 12.4735 11.7538 11.8535V8.76022C11.7538 8.48688 11.9804 8.26022 12.2538 8.26022C12.5271 8.26022 12.7538 8.48688 12.7538 8.76022V11.8535C12.7538 12.9135 11.9671 14.0069 10.9604 14.3469L8.83378 15.0535C8.59378 15.1269 8.29378 15.1669 8.00045 15.1669Z" fill="white"/>
<path d="M14.2666 10.5C13.9933 10.5 13.7666 10.2733 13.7666 10V6C13.7666 5.72667 13.9933 5.5 14.2666 5.5C14.5399 5.5 14.7666 5.72667 14.7666 6V10C14.7666 10.2733 14.5399 10.5 14.2666 10.5Z" fill="white"/>
</svg>
